{"asset":{"version":"2.0","generator":"babylon.js glTF exporter for 3dsmax 2018 v20220316.2"},"scene":0,"scenes":[{"nodes":[0]}],"nodes":[{"mesh":0,"translation":[-1.02012813,0.0,-0.3444747],"name":"BG"}],"meshes":[{"primitives":[{"attributes":{"POSITION":1,"NORMAL":2,"TEXCOORD_0":3},"indices":0,"material":0}],"name":"BG"}],"accessors":[{"bufferView":0,"componentType":5123,"count":96,"type":"SCALAR","name":"accessorIndices"},{"bufferView":1,"componentType":5126,"count":25,"max":[250.0,0.0,150.0],"min":[-250.0,0.0,-150.0],"type":"VEC3","name":"accessorPositions"},{"bufferView":1,"byteOffset":300,"componentType":5126,"count":25,"type":"VEC3","name":"accessorNormals"},{"bufferView":2,"componentType":5126,"count":25,"type":"VEC2","name":"accessorUVs"}],"bufferViews":[{"buffer":0,"byteLength":192,"name":"bufferViewScalar"},{"buffer":0,"byteOffset":192,"byteLength":600,"byteStride":12,"name":"bufferViewFloatVec3"},{"buffer":0,"byteOffset":792,"byteLength":200,"byteStride":8,"name":"bufferViewFloatVec2"}],"buffers":[{"uri":"GaoChunIrrigationSystemChart_BG.bin","byteLength":992}],"materials":[{"pbrMetallicRoughness":{"baseColorTexture":{"index":0},"metallicFactor":0.0,"roughnessFactor":0.450053632},"name":"BG"}],"textures":[{"sampler":0,"source":0,"name":"GaoChunIrrigationSystem.jpg"}],"images":[{"uri":"GaoChunIrrigationSystem.jpg"}],"samplers":[{"magFilter":9729,"minFilter":9987}]}