{"asset":{"version":"2.0","generator":"babylon.js glTF exporter for 3dsmax 2018 v20220316.2"},"scene":0,"scenes":[{"nodes":[0,7,14,19,22]}],"nodes":[{"children":[1,2,3,4,5,6],"translation":[-0.0181741416,0.101424113,0.00134172442],"name":"1F_Click"},{"mesh":0,"translation":[-0.08679877,0.101098433,0.00178518286],"scale":[0.799999952,0.799999952,0.799999952],"name":"S0E122"},{"mesh":1,"translation":[0.127234429,0.101098433,0.00178518286],"scale":[0.799999952,0.799999952,0.799999952],"name":"S0E121"},{"mesh":2,"translation":[0.127234384,0.101098433,0.164789826],"scale":[0.799999952,0.799999952,0.799999952],"name":"S0E123"},{"mesh":3,"translation":[-0.08679877,0.101098433,0.164789781],"scale":[0.799999952,0.799999952,0.799999952],"name":"S0E124"},{"mesh":4,"translation":[0.0776176453,0.101098433,0.333423823],"name":"S0E101"},{"mesh":5,"translation":[-0.0220554,0.101098433,-0.334076136],"name":"S0E111"},{"children":[8,9,10,11,12,13],"translation":[-2.86102278E-07,0.11051733,1.90734859E-08],"name":"1F"},{"mesh":6,"translation":[0.0,-0.109881304,-8.19563861E-10],"name":"1F_OpacityWall01"},{"mesh":7,"translation":[-1.14440915E-07,-0.109881796,-1.9893049E-08],"name":"1F_OpacityWall01_Line"},{"mesh":8,"translation":[0.0,5.001068E-05,-8.19563861E-10],"name":"1F_OpacityWall_Line"},{"mesh":9,"translation":[0.0,5.001068E-05,-8.19563861E-10],"name":"1F_OpacityWall"},{"mesh":10,"translation":[-0.227948964,0.0920052156,-0.2288672],"name":"1F_USP01"},{"mesh":11,"translation":[-0.07088826,0.0920052156,0.334765553],"name":"1F_Air-Conditioning01"},{"children":[15,16,17,18],"translation":[0.008408814,0.0213083588,0.07441895],"scale":[0.799999952,0.799999952,0.799999952],"name":"TH"},{"translation":[-0.19955413,0.0,0.226383969],"name":"S0E31"},{"translation":[0.19955413,0.0,0.226383969],"name":"S0E32"},{"translation":[0.19955413,0.0,-0.226383969],"name":"S0E34"},{"translation":[-0.19955413,0.0,-0.226383969],"name":"S0E33"},{"children":[20,21],"translation":[0.003933902,0.198037148,0.253712177],"name":"1F_WLA"},{"translation":[-0.07012722,0.0,0.0],"name":"S0E41D2"},{"translation":[0.07012722,0.0,0.0],"name":"S0E41D1"},{"children":[23,24,25,26],"translation":[-0.007123818,0.191957414,-0.013585262],"name":"1F_SAFE"},{"translation":[-0.111979634,0.0,0.09540796],"name":"1F_SAFE01"},{"translation":[0.111979634,0.0,0.09540796],"name":"1F_SAFE02"},{"translation":[-0.111979634,0.0,-0.09231763],"name":"1F_SAFE04"},{"translation":[0.111979634,0.0,-0.09540796],"name":"1F_SAFE03"}],"meshes":[{"primitives":[{"attributes":{"POSITION":1,"NORMAL":2,"TEXCOORD_0":3},"indices":0,"material":0}],"name":"S0E122"},{"primitives":[{"attributes":{"POSITION":5,"NORMAL":6,"TEXCOORD_0":7},"indices":4,"material":1}],"name":"S0E121"},{"primitives":[{"attributes":{"POSITION":9,"NORMAL":10,"TEXCOORD_0":11},"indices":8,"material":2}],"name":"S0E123"},{"primitives":[{"attributes":{"POSITION":13,"NORMAL":14,"TEXCOORD_0":15},"indices":12,"material":3}],"name":"S0E124"},{"primitives":[{"attributes":{"POSITION":17,"NORMAL":18,"TEXCOORD_0":19},"indices":16,"material":4}],"name":"S0E101"},{"primitives":[{"attributes":{"POSITION":21,"NORMAL":22,"TEXCOORD_0":23},"indices":20,"material":4}],"name":"S0E111"},{"primitives":[{"attributes":{"POSITION":25,"NORMAL":26},"indices":24,"material":5}],"name":"1F_OpacityWall01"},{"primitives":[{"attributes":{"POSITION":28,"NORMAL":29},"indices":27,"material":6}],"name":"1F_OpacityWall01_Line"},{"primitives":[{"attributes":{"POSITION":31,"NORMAL":32},"indices":30,"material":7}],"name":"1F_OpacityWall_Line"},{"primitives":[{"attributes":{"POSITION":34,"NORMAL":35},"indices":33,"material":5}],"name":"1F_OpacityWall"},{"primitives":[{"attributes":{"POSITION":37,"NORMAL":38,"TEXCOORD_0":39},"indices":36,"material":4}],"name":"1F_USP01"},{"primitives":[{"attributes":{"POSITION":41,"NORMAL":42,"TEXCOORD_0":43},"indices":40,"material":4}],"name":"1F_Air-Conditioning01"}],"accessors":[{"bufferView":0,"componentType":5123,"count":21408,"type":"SCALAR","name":"accessorIndices"},{"bufferView":1,"componentType":5126,"count":13510,"max":[0.13295944,-0.17109409,0.0531656258],"min":[-0.132959485,-0.2527461,-0.0531657],"type":"VEC3","name":"accessorPositions"},{"bufferView":1,"byteOffset":162120,"componentType":5126,"count":13510,"type":"VEC3","name":"accessorNormals"},{"bufferView":2,"componentType":5126,"count":13510,"type":"VEC2","name":"accessorUVs"},{"bufferView":0,"byteOffset":42816,"componentType":5123,"count":21408,"type":"SCALAR","name":"accessorIndices"},{"bufferView":1,"byteOffset":324240,"componentType":5126,"count":13474,"max":[0.1329594,-0.17109409,0.053165663],"min":[-0.132959515,-0.2527461,-0.053165663],"type":"VEC3","name":"accessorPositions"},{"bufferView":1,"byteOffset":485928,"componentType":5126,"count":13474,"type":"VEC3","name":"accessorNormals"},{"bufferView":2,"byteOffset":108080,"componentType":5126,"count":13474,"type":"VEC2","name":"accessorUVs"},{"bufferView":0,"byteOffset":85632,"componentType":5123,"count":21408,"type":"SCALAR","name":"accessorIndices"},{"bufferView":1,"byteOffset":647616,"componentType":5126,"count":13308,"max":[0.132959589,-0.17109409,0.05316559],"min":[-0.132959351,-0.2527461,-0.0531657],"type":"VEC3","name":"accessorPositions"},{"bufferView":1,"byteOffset":807312,"componentType":5126,"count":13308,"type":"VEC3","name":"accessorNormals"},{"bufferView":2,"byteOffset":215872,"componentType":5126,"count":13308,"type":"VEC2","name":"accessorUVs"},{"bufferView":0,"byteOffset":128448,"componentType":5123,"count":21408,"type":"SCALAR","name":"accessorIndices"},{"bufferView":1,"byteOffset":967008,"componentType":5126,"count":13208,"max":[0.13295944,-0.17109409,0.05316559],"min":[-0.1329595,-0.2527461,-0.05316574],"type":"VEC3","name":"accessorPositions"},{"bufferView":1,"byteOffset":1125504,"componentType":5126,"count":13208,"type":"VEC3","name":"accessorNormals"},{"bufferView":2,"byteOffset":322336,"componentType":5126,"count":13208,"type":"VEC2","name":"accessorUVs"},{"bufferView":0,"byteOffset":171264,"componentType":5123,"count":96,"type":"SCALAR","name":"accessorIndices"},{"bufferView":1,"byteOffset":1284000,"componentType":5126,"count":64,"max":[0.0290208142,0.0,0.0244791415],"min":[-0.0290208142,-0.201886579,-0.0244791787],"type":"VEC3","name":"accessorPositions"},{"bufferView":1,"byteOffset":1284768,"componentType":5126,"count":64,"type":"VEC3","name":"accessorNormals"},{"bufferView":2,"byteOffset":428000,"componentType":5126,"count":64,"type":"VEC2","name":"accessorUVs"},{"bufferView":0,"byteOffset":171456,"componentType":5123,"count":66,"type":"SCALAR","name":"accessorIndices"},{"bufferView":1,"byteOffset":1285536,"componentType":5126,"count":44,"max":[0.02902078,0.0,0.0238268469],"min":[-0.02902078,-0.201886579,-0.0238268375],"type":"VEC3","name":"accessorPositions"},{"bufferView":1,"byteOffset":1286064,"componentType":5126,"count":44,"type":"VEC3","name":"accessorNormals"},{"bufferView":2,"byteOffset":428512,"componentType":5126,"count":44,"type":"VEC2","name":"accessorUVs"},{"bufferView":0,"byteOffset":171588,"componentType":5123,"count":3654,"type":"SCALAR","name":"accessorIndices"},{"bufferView":1,"byteOffset":1286592,"componentType":5126,"count":660,"max":[0.252400368,-4.959106E-07,0.359259784],"min":[-0.252400368,-4.959106E-07,-0.359259784],"type":"VEC3","name":"accessorPositions"},{"bufferView":1,"byteOffset":1294512,"componentType":5126,"count":660,"type":"VEC3","name":"accessorNormals"},{"bufferView":0,"byteOffset":178896,"componentType":5123,"count":1152,"type":"SCALAR","name":"accessorIndices"},{"bufferView":1,"byteOffset":1302432,"componentType":5126,"count":772,"max":[0.252400249,0.0006000137,0.359259754],"min":[-0.252400249,-0.0006000137,-0.359259754],"type":"VEC3","name":"accessorPositions"},{"bufferView":1,"byteOffset":1311696,"componentType":5126,"count":772,"type":"VEC3","name":"accessorNormals"},{"bufferView":0,"byteOffset":181200,"componentType":5123,"count":336,"type":"SCALAR","name":"accessorIndices"},{"bufferView":1,"byteOffset":1320960,"componentType":5126,"count":220,"max":[0.252900362,0.110431813,0.359759748],"min":[-0.252900362,-0.110431813,-0.359759748],"type":"VEC3","name":"accessorPositions"},{"bufferView":1,"byteOffset":1323600,"componentType":5126,"count":220,"type":"VEC3","name":"accessorNormals"},{"bufferView":0,"byteOffset":181872,"componentType":5123,"count":24,"type":"SCALAR","name":"accessorIndices"},{"bufferView":1,"byteOffset":1326240,"componentType":5126,"count":16,"max":[0.252400368,0.109931812,0.359259784],"min":[-0.252400368,-0.109931812,-0.359259784],"type":"VEC3","name":"accessorPositions"},{"bufferView":1,"byteOffset":1326432,"componentType":5126,"count":16,"type":"VEC3","name":"accessorNormals"},{"bufferView":0,"byteOffset":181920,"componentType":5123,"count":66,"type":"SCALAR","name":"accessorIndices"},{"bufferView":1,"byteOffset":1326624,"componentType":5126,"count":44,"max":[0.02382685,0.0,0.029020777],"min":[-0.0238268543,-0.201886579,-0.02902078],"type":"VEC3","name":"accessorPositions"},{"bufferView":1,"byteOffset":1327152,"componentType":5126,"count":44,"type":"VEC3","name":"accessorNormals"},{"bufferView":2,"byteOffset":428864,"componentType":5126,"count":44,"type":"VEC2","name":"accessorUVs"},{"bufferView":0,"byteOffset":182052,"componentType":5123,"count":96,"type":"SCALAR","name":"accessorIndices"},{"bufferView":1,"byteOffset":1327680,"componentType":5126,"count":64,"max":[0.0290207956,0.0,0.0244791415],"min":[-0.0290207956,-0.201886579,-0.0244791787],"type":"VEC3","name":"accessorPositions"},{"bufferView":1,"byteOffset":1328448,"componentType":5126,"count":64,"type":"VEC3","name":"accessorNormals"},{"bufferView":2,"byteOffset":429216,"componentType":5126,"count":64,"type":"VEC2","name":"accessorUVs"}],"bufferViews":[{"buffer":0,"byteLength":182244,"name":"bufferViewScalar"},{"buffer":0,"byteOffset":182244,"byteLength":1329216,"byteStride":12,"name":"bufferViewFloatVec3"},{"buffer":0,"byteOffset":1511460,"byteLength":429728,"byteStride":8,"name":"bufferViewFloatVec2"}],"buffers":[{"uri":"1F.bin","byteLength":1941188}],"materials":[{"pbrMetallicRoughness":{"baseColorTexture":{"index":0},"metallicFactor":0.0,"metallicRoughnessTexture":{"index":1}},"doubleSided":true,"name":"1F_Battery01","extras":{"babylonSeparateCullingPass":false}},{"pbrMetallicRoughness":{"baseColorTexture":{"index":0},"metallicFactor":0.0,"metallicRoughnessTexture":{"index":1}},"doubleSided":true,"name":"1F_Battery","extras":{"babylonSeparateCullingPass":false}},{"pbrMetallicRoughness":{"baseColorTexture":{"index":0},"metallicFactor":0.0,"metallicRoughnessTexture":{"index":1}},"doubleSided":true,"name":"1F_Battery03","extras":{"babylonSeparateCullingPass":false}},{"pbrMetallicRoughness":{"baseColorTexture":{"index":0},"metallicFactor":0.0,"metallicRoughnessTexture":{"index":1}},"doubleSided":true,"name":"1F_Battery02","extras":{"babylonSeparateCullingPass":false}},{"pbrMetallicRoughness":{"baseColorTexture":{"index":0},"metallicFactor":0.0,"metallicRoughnessTexture":{"index":1}},"doubleSided":true,"name":"1F_Equipment01","extras":{"babylonSeparateCullingPass":false}},{"pbrMetallicRoughness":{"baseColorFactor":[0.5882353,0.5882353,0.5882353,0.199999988],"metallicFactor":0.0,"roughnessFactor":0.450053632},"alphaMode":"BLEND","name":"NanJN_Opacity_Wall"},{"pbrMetallicRoughness":{"baseColorFactor":[0.215686291,0.215686291,0.215686291,1.0],"metallicFactor":0.0,"roughnessFactor":0.450053632},"name":"Gary"},{"pbrMetallicRoughness":{"metallicFactor":0.0,"roughnessFactor":0.450053632},"name":"Write"}],"textures":[{"sampler":0,"source":0,"name":"1FEquipment.jpg"},{"sampler":0,"source":1,"name":"Aircondition_Roughness0.jpg"}],"images":[{"uri":"1FEquipment.jpg"},{"uri":"Aircondition_Roughness0.jpg"}],"samplers":[{"magFilter":9729,"minFilter":9987}]}