{"asset":{"version":"2.0","generator":"babylon.js glTF exporter for 3dsmax 2018 v20220316.2"},"scene":0,"scenes":[{"nodes":[0,5,18,21,26,29]}],"nodes":[{"children":[1,2,3,4],"translation":[0.113151379,0.100382365,-0.03946289],"name":"5F_Click"},{"mesh":0,"translation":[-0.136544928,0.09999998,-0.295986325],"name":"S0E61"},{"mesh":1,"translation":[-0.136544928,0.09999998,0.295986325],"name":"S0E31"},{"mesh":2,"translation":[0.152544931,0.09999996,-0.09848257],"name":"S0E41"},{"mesh":3,"translation":[0.152544931,0.09999998,0.147985071],"name":"S0E42"},{"children":[6,7,8,9,10,11,12,13,14,15,16,17],"translation":[-9.536743E-09,0.112272553,5.72204577E-08],"name":"5F"},{"mesh":4,"translation":[0.0320849679,-0.0238884725,0.043789003],"name":"JiGui"},{"mesh":5,"translation":[0.1125879,-0.03157402,0.184960872],"scale":[0.0009999999,0.0009999999,0.0009999999],"name":"5F_UPS"},{"mesh":6,"translation":[0.00153306,0.006610794,-0.00241460814],"name":"5F_Opacity_Wall"},{"mesh":7,"translation":[-0.170068353,-0.03188896,-0.07505865],"rotation":[0.0,-8.742278E-08,0.0,1.0],"name":"JiGui03"},{"mesh":8,"translation":[-0.170068353,-0.03188896,-0.130039111],"rotation":[0.0,-8.742278E-08,0.0,1.0],"name":"JiGui04"},{"mesh":9,"translation":[0.125126958,-0.03188896,0.184921816],"rotation":[0.0,-8.742278E-08,0.0,1.0],"name":"5F_USP_JG"},{"mesh":10,"translation":[-0.170068353,-0.03188896,-0.0216065012],"rotation":[0.0,-8.742278E-08,0.0,1.0],"name":"JiGui02"},{"mesh":11,"translation":[0.00167752267,0.006610794,-0.00249837874],"name":"5F_Opacity_Ground"},{"mesh":12,"translation":[0.00153306,0.006610794,-0.00241460814],"name":"5F_Opacity_Ground_Line"},{"mesh":13,"translation":[0.00153306,0.006610794,-0.00241460814],"name":"5F_Opacity_Wall_Line"},{"mesh":14,"translation":[0.09063473,-0.0967351049,0.184804633],"scale":[0.0009999999,0.0009999999,0.0009999999],"name":"UPS02"},{"mesh":15,"translation":[0.09063473,-0.08552904,0.184804633],"scale":[0.0009999999,0.0009999999,0.0009999999],"name":"UPS01"},{"children":[19,20],"translation":[0.11510662,0.171656743,0.184683],"name":"5F_UPS (1)"},{"mesh":16,"translation":[0.0238767229,0.00763847353,-6.46591143E-05],"name":"S0E11"},{"mesh":17,"translation":[-0.0240321532,0.00763847353,-6.46591143E-05],"name":"S0E12"},{"children":[22,23,24,25],"translation":[0.00684997533,0.0233010724,0.0005293654],"scale":[0.799999952,0.799999952,0.799999952],"name":"5F_TH"},{"translation":[0.26715228,0.0,-0.38378945],"name":"S0E1"},{"translation":[0.26715228,0.0,0.3837894],"name":"S0E35"},{"translation":[-0.26715228,0.0,-0.38378945],"name":"S0E36"},{"translation":[-0.26715228,0.0,0.3837894],"name":"S0E37"},{"children":[27,28],"translation":[-0.0420073681,0.217777967,-0.233772889],"name":"5F_WLA"},{"translation":[0.0,0.0,0.0304870978],"name":"S0E21D1"},{"translation":[0.0,0.0,0.39261806],"name":"S0E21D2"},{"children":[30,31,32,33],"translation":[0.12431211,0.217777967,-0.010514793],"name":"5F_SAFE"},{"translation":[-0.298541129,0.0,0.267112345],"name":"5F_SAFE02"},{"translation":[-0.298541129,0.0,-0.237553433],"name":"5F_SAFE01"},{"translation":[0.0684467852,0.0,-0.237553433],"name":"5F_SAFE03"},{"translation":[0.0684467852,0.0,0.267112345],"name":"5F_SAFE04"}],"meshes":[{"primitives":[{"attributes":{"POSITION":1,"NORMAL":2,"TEXCOORD_0":3},"indices":0,"material":0}],"name":"S0E61"},{"primitives":[{"attributes":{"POSITION":5,"NORMAL":6,"TEXCOORD_0":7},"indices":4,"material":1}],"name":"S0E31"},{"primitives":[{"attributes":{"POSITION":9,"NORMAL":10,"TEXCOORD_0":11},"indices":8,"material":2}],"name":"S0E41"},{"primitives":[{"attributes":{"POSITION":13,"NORMAL":14,"TEXCOORD_0":15},"indices":12,"material":3}],"name":"S0E42"},{"primitives":[{"attributes":{"POSITION":17,"NORMAL":18,"TEXCOORD_0":19},"indices":16,"material":4}],"name":"JiGui"},{"primitives":[{"attributes":{"POSITION":21,"NORMAL":22,"TEXCOORD_0":23},"indices":20,"material":4}],"name":"5F_UPS"},{"primitives":[{"attributes":{"POSITION":25,"NORMAL":26},"indices":24,"material":5}],"name":"5F_Opacity_Wall"},{"primitives":[{"attributes":{"POSITION":28,"NORMAL":29,"TEXCOORD_0":30},"indices":27,"material":6}],"name":"JiGui03"},{"primitives":[{"attributes":{"POSITION":32,"NORMAL":33,"TEXCOORD_0":34},"indices":31,"material":7}],"name":"JiGui04"},{"primitives":[{"attributes":{"POSITION":36,"NORMAL":37,"TEXCOORD_0":38},"indices":35,"material":8}],"name":"5F_USP_JG"},{"primitives":[{"attributes":{"POSITION":40,"NORMAL":41,"TEXCOORD_0":42},"indices":39,"material":9}],"name":"JiGui02"},{"primitives":[{"attributes":{"POSITION":44,"NORMAL":45},"indices":43,"material":5}],"name":"5F_Opacity_Ground"},{"primitives":[{"attributes":{"POSITION":47,"NORMAL":48},"indices":46,"material":10}],"name":"5F_Opacity_Ground_Line"},{"primitives":[{"attributes":{"POSITION":50,"NORMAL":51},"indices":49,"material":11}],"name":"5F_Opacity_Wall_Line"},{"primitives":[{"attributes":{"POSITION":53,"NORMAL":54,"TEXCOORD_0":55},"indices":52,"material":4}],"name":"UPS02"},{"primitives":[{"attributes":{"POSITION":57,"NORMAL":58,"TEXCOORD_0":59},"indices":56,"material":4}],"name":"UPS01"},{"primitives":[{"attributes":{"POSITION":61,"NORMAL":62,"TEXCOORD_0":63},"indices":60,"material":12}],"name":"S0E11"},{"primitives":[{"attributes":{"POSITION":65,"NORMAL":66,"TEXCOORD_0":67},"indices":64,"material":13}],"name":"S0E12"}],"accessors":[{"bufferView":0,"componentType":5123,"count":36,"type":"SCALAR","name":"accessorIndices"},{"bufferView":1,"componentType":5126,"count":24,"max":[0.0319999978,0.0,0.0279999916],"min":[-0.0319999978,-0.199999973,-0.028],"type":"VEC3","name":"accessorPositions"},{"bufferView":1,"byteOffset":288,"componentType":5126,"count":24,"type":"VEC3","name":"accessorNormals"},{"bufferView":2,"componentType":5126,"count":24,"type":"VEC2","name":"accessorUVs"},{"bufferView":0,"byteOffset":72,"componentType":5123,"count":36,"type":"SCALAR","name":"accessorIndices"},{"bufferView":1,"byteOffset":576,"componentType":5126,"count":24,"max":[0.0319999978,0.0,0.0279999916],"min":[-0.0319999978,-0.199999973,-0.028],"type":"VEC3","name":"accessorPositions"},{"bufferView":1,"byteOffset":864,"componentType":5126,"count":24,"type":"VEC3","name":"accessorNormals"},{"bufferView":2,"byteOffset":192,"componentType":5126,"count":24,"type":"VEC2","name":"accessorUVs"},{"bufferView":0,"byteOffset":144,"componentType":5123,"count":72,"type":"SCALAR","name":"accessorIndices"},{"bufferView":1,"byteOffset":1152,"componentType":5126,"count":48,"max":[0.015999984,-0.103998251,0.09709082],"min":[-0.0160000026,-0.199998245,-0.09709082],"type":"VEC3","name":"accessorPositions"},{"bufferView":1,"byteOffset":1728,"componentType":5126,"count":48,"type":"VEC3","name":"accessorNormals"},{"bufferView":2,"byteOffset":384,"componentType":5126,"count":48,"type":"VEC2","name":"accessorUVs"},{"bufferView":0,"byteOffset":288,"componentType":5123,"count":72,"type":"SCALAR","name":"accessorIndices"},{"bufferView":1,"byteOffset":2304,"componentType":5126,"count":48,"max":[0.015999984,-0.103998266,0.0970908],"min":[-0.0160000026,-0.19999826,-0.0970908],"type":"VEC3","name":"accessorPositions"},{"bufferView":1,"byteOffset":2880,"componentType":5126,"count":48,"type":"VEC3","name":"accessorNormals"},{"bufferView":2,"byteOffset":768,"componentType":5126,"count":48,"type":"VEC2","name":"accessorUVs"},{"bufferView":0,"byteOffset":432,"componentType":5123,"count":2091,"type":"SCALAR","name":"accessorIndices"},{"bufferView":1,"byteOffset":3456,"componentType":5126,"count":995,"max":[0.250146776,0.08799999,0.113653027],"min":[-0.250146776,-0.08799999,-0.3188898],"type":"VEC3","name":"accessorPositions"},{"bufferView":1,"byteOffset":15396,"componentType":5126,"count":995,"type":"VEC3","name":"accessorNormals"},{"bufferView":2,"byteOffset":1152,"componentType":5126,"count":995,"type":"VEC2","name":"accessorUVs"},{"bufferView":0,"byteOffset":4616,"componentType":5123,"count":36,"type":"SCALAR","name":"accessorIndices"},{"bufferView":1,"byteOffset":27336,"componentType":5126,"count":24,"max":[31.4561062,75.34274,22.3319435],"min":[-31.4561024,-75.34274,-22.331955],"type":"VEC3","name":"accessorPositions"},{"bufferView":1,"byteOffset":27624,"componentType":5126,"count":24,"type":"VEC3","name":"accessorNormals"},{"bufferView":2,"byteOffset":9112,"componentType":5126,"count":24,"type":"VEC2","name":"accessorUVs"},{"bufferView":0,"byteOffset":4688,"componentType":5123,"count":24,"type":"SCALAR","name":"accessorIndices"},{"bufferView":1,"byteOffset":27912,"componentType":5126,"count":16,"max":[0.2809944,0.105376959,0.368553877],"min":[-0.2840605,-0.118498512,-0.363724649],"type":"VEC3","name":"accessorPositions"},{"bufferView":1,"byteOffset":28104,"componentType":5126,"count":16,"type":"VEC3","name":"accessorNormals"},{"bufferView":0,"byteOffset":4736,"componentType":5123,"count":273,"type":"SCALAR","name":"accessorIndices"},{"bufferView":1,"byteOffset":28296,"componentType":5126,"count":125,"max":[0.048,0.07999999,0.0260000061],"min":[-0.048,-0.07999999,-0.0260000061],"type":"VEC3","name":"accessorPositions"},{"bufferView":1,"byteOffset":29796,"componentType":5126,"count":125,"type":"VEC3","name":"accessorNormals"},{"bufferView":2,"byteOffset":9304,"componentType":5126,"count":125,"type":"VEC2","name":"accessorUVs"},{"bufferView":0,"byteOffset":5284,"componentType":5123,"count":273,"type":"SCALAR","name":"accessorIndices"},{"bufferView":1,"byteOffset":31296,"componentType":5126,"count":125,"max":[0.048,0.07999999,0.0260000061],"min":[-0.048,-0.07999999,-0.0260000061],"type":"VEC3","name":"accessorPositions"},{"bufferView":1,"byteOffset":32796,"componentType":5126,"count":125,"type":"VEC3","name":"accessorNormals"},{"bufferView":2,"byteOffset":10304,"componentType":5126,"count":125,"type":"VEC2","name":"accessorUVs"},{"bufferView":0,"byteOffset":5832,"componentType":5123,"count":273,"type":"SCALAR","name":"accessorIndices"},{"bufferView":1,"byteOffset":34296,"componentType":5126,"count":125,"max":[0.0480001047,0.07999999,0.02599988],"min":[-0.04799988,-0.07999999,-0.026000116],"type":"VEC3","name":"accessorPositions"},{"bufferView":1,"byteOffset":35796,"componentType":5126,"count":125,"type":"VEC3","name":"accessorNormals"},{"bufferView":2,"byteOffset":11304,"componentType":5126,"count":125,"type":"VEC2","name":"accessorUVs"},{"bufferView":0,"byteOffset":6380,"componentType":5123,"count":273,"type":"SCALAR","name":"accessorIndices"},{"bufferView":1,"byteOffset":37296,"componentType":5126,"count":125,"max":[0.048,0.07999999,0.0260000061],"min":[-0.048,-0.07999999,-0.0260000061],"type":"VEC3","name":"accessorPositions"},{"bufferView":1,"byteOffset":38796,"componentType":5126,"count":125,"type":"VEC3","name":"accessorNormals"},{"bufferView":2,"byteOffset":12304,"componentType":5126,"count":125,"type":"VEC2","name":"accessorUVs"},{"bufferView":0,"byteOffset":6928,"componentType":5123,"count":3276,"type":"SCALAR","name":"accessorIndices"},{"bufferView":1,"byteOffset":40296,"componentType":5126,"count":594,"max":[0.2809944,-0.118498512,0.368553847],"min":[-0.2840605,-0.118498512,-0.363724649],"type":"VEC3","name":"accessorPositions"},{"bufferView":1,"byteOffset":47424,"componentType":5126,"count":594,"type":"VEC3","name":"accessorNormals"},{"bufferView":0,"byteOffset":13480,"componentType":5123,"count":1080,"type":"SCALAR","name":"accessorIndices"},{"bufferView":1,"byteOffset":54552,"componentType":5126,"count":724,"max":[0.280994475,-0.1178985,0.3685538],"min":[-0.2840605,-0.119098529,-0.363724649],"type":"VEC3","name":"accessorPositions"},{"bufferView":1,"byteOffset":63240,"componentType":5126,"count":724,"type":"VEC3","name":"accessorNormals"},{"bufferView":0,"byteOffset":15640,"componentType":5123,"count":336,"type":"SCALAR","name":"accessorIndices"},{"bufferView":1,"byteOffset":71928,"componentType":5126,"count":220,"max":[0.281494379,0.10587696,0.36905387],"min":[-0.2845605,-0.118998513,-0.364224643],"type":"VEC3","name":"accessorPositions"},{"bufferView":1,"byteOffset":74568,"componentType":5126,"count":220,"type":"VEC3","name":"accessorNormals"},{"bufferView":0,"byteOffset":16312,"componentType":5123,"count":30,"type":"SCALAR","name":"accessorIndices"},{"bufferView":1,"byteOffset":77208,"componentType":5126,"count":20,"max":[9.837296,5.46205854,20.2585716],"min":[-9.837289,-5.462059,-20.2585564],"type":"VEC3","name":"accessorPositions"},{"bufferView":1,"byteOffset":77448,"componentType":5126,"count":20,"type":"VEC3","name":"accessorNormals"},{"bufferView":2,"byteOffset":13304,"componentType":5126,"count":20,"type":"VEC2","name":"accessorUVs"},{"bufferView":0,"byteOffset":16372,"componentType":5123,"count":30,"type":"SCALAR","name":"accessorIndices"},{"bufferView":1,"byteOffset":77688,"componentType":5126,"count":20,"max":[9.83729,5.462058,20.2585716],"min":[-9.837296,-5.46206045,-20.2585564],"type":"VEC3","name":"accessorPositions"},{"bufferView":1,"byteOffset":77928,"componentType":5126,"count":20,"type":"VEC3","name":"accessorNormals"},{"bufferView":2,"byteOffset":13464,"componentType":5126,"count":20,"type":"VEC2","name":"accessorUVs"},{"bufferView":0,"byteOffset":16432,"componentType":5123,"count":36,"type":"SCALAR","name":"accessorIndices"},{"bufferView":1,"byteOffset":78168,"componentType":5126,"count":24,"max":[0.01,0.0024999904,0.01],"min":[-0.01,-0.01750001,-0.01],"type":"VEC3","name":"accessorPositions"},{"bufferView":1,"byteOffset":78456,"componentType":5126,"count":24,"type":"VEC3","name":"accessorNormals"},{"bufferView":2,"byteOffset":13624,"componentType":5126,"count":24,"type":"VEC2","name":"accessorUVs"},{"bufferView":0,"byteOffset":16504,"componentType":5123,"count":36,"type":"SCALAR","name":"accessorIndices"},{"bufferView":1,"byteOffset":78744,"componentType":5126,"count":24,"max":[0.01,0.0024999904,0.01],"min":[-0.01,-0.01750001,-0.01],"type":"VEC3","name":"accessorPositions"},{"bufferView":1,"byteOffset":79032,"componentType":5126,"count":24,"type":"VEC3","name":"accessorNormals"},{"bufferView":2,"byteOffset":13816,"componentType":5126,"count":24,"type":"VEC2","name":"accessorUVs"}],"bufferViews":[{"buffer":0,"byteLength":16576,"name":"bufferViewScalar"},{"buffer":0,"byteOffset":16576,"byteLength":79320,"byteStride":12,"name":"bufferViewFloatVec3"},{"buffer":0,"byteOffset":95896,"byteLength":14008,"byteStride":8,"name":"bufferViewFloatVec2"}],"buffers":[{"uri":"5F_MoveRing.bin","byteLength":109904}],"materials":[{"pbrMetallicRoughness":{"baseColorTexture":{"index":0},"metallicFactor":0.0},"doubleSided":true,"name":"5F_Air-Conditioning","extras":{"babylonSeparateCullingPass":false}},{"pbrMetallicRoughness":{"baseColorTexture":{"index":0},"metallicFactor":0.0},"doubleSided":true,"name":"5F_Air-Conditioning01","extras":{"babylonSeparateCullingPass":false}},{"pbrMetallicRoughness":{"baseColorTexture":{"index":0},"metallicFactor":0.0},"doubleSided":true,"name":"Battery","extras":{"babylonSeparateCullingPass":false}},{"pbrMetallicRoughness":{"baseColorTexture":{"index":0},"metallicFactor":0.0},"doubleSided":true,"name":"Battery02","extras":{"babylonSeparateCullingPass":false}},{"pbrMetallicRoughness":{"baseColorTexture":{"index":0},"metallicFactor":0.0},"doubleSided":true,"name":"5FEquipment01","extras":{"babylonSeparateCullingPass":false}},{"pbrMetallicRoughness":{"baseColorFactor":[0.5882353,0.5882353,0.5882353,0.199999988],"metallicFactor":0.0,"roughnessFactor":0.450053632},"alphaMode":"BLEND","name":"5F_Wall_Opacity"},{"pbrMetallicRoughness":{"baseColorTexture":{"index":0},"metallicFactor":0.0},"doubleSided":true,"name":"5F_JG03","extras":{"babylonSeparateCullingPass":false}},{"pbrMetallicRoughness":{"baseColorTexture":{"index":0},"metallicFactor":0.0},"doubleSided":true,"name":"5F_JG04","extras":{"babylonSeparateCullingPass":false}},{"pbrMetallicRoughness":{"baseColorTexture":{"index":0},"metallicFactor":0.0},"doubleSided":true,"name":"5F_USP_JG","extras":{"babylonSeparateCullingPass":false}},{"pbrMetallicRoughness":{"baseColorTexture":{"index":0},"metallicFactor":0.0},"doubleSided":true,"name":"5F_JG02","extras":{"babylonSeparateCullingPass":false}},{"pbrMetallicRoughness":{"baseColorFactor":[0.2392157,0.2392157,0.2392157,1.0],"metallicFactor":0.0,"roughnessFactor":0.450053632},"name":"Gray"},{"pbrMetallicRoughness":{"metallicFactor":0.0,"roughnessFactor":0.450053632},"name":"Write"},{"pbrMetallicRoughness":{"baseColorFactor":[0.5882353,0.5882353,0.5882353,0.0],"metallicFactor":0.0,"roughnessFactor":0.450053632},"alphaMode":"BLEND","name":"UPS1"},{"pbrMetallicRoughness":{"baseColorFactor":[0.5882353,0.5882353,0.5882353,0.0],"metallicFactor":0.0,"roughnessFactor":0.450053632},"alphaMode":"BLEND","name":"UPS2"}],"textures":[{"sampler":0,"source":0,"name":"5FEquipment01.jpg"}],"images":[{"uri":"5FEquipment01.jpg"}],"samplers":[{"magFilter":9729,"minFilter":9987}]}