{"asset":{"version":"2.0","generator":"babylon.js glTF exporter for 3dsmax 2018 v20220316.2"},"scene":0,"scenes":[{"nodes":[0,3,5,8,17]}],"nodes":[{"children":[1,2],"translation":[-0.648544431,0.215736181,-0.145784646],"name":"LengQueTa"},{"mesh":0,"translation":[0.0,0.0,0.0508731268],"name":"LengQueTa (1)"},{"mesh":1,"translation":[-5.3863525E-05,-0.060927283,0.06438868],"rotation":[0.0,-8.742278E-08,0.0,1.0],"name":"LengQueTa_StainlnessSteel"},{"children":[4],"translation":[0.7833432,0.218064591,-0.126391754],"name":"ProcessInternalMachine"},{"mesh":2,"translation":[7.62939436E-08,0.00026363373,-0.004174957],"name":"Pump"},{"children":[6,7],"translation":[0.0710402,0.218560874,-0.159928426],"name":"ProcessExternalMachine"},{"mesh":3,"translation":[0.00227581966,0.0,-0.0287397373],"name":"Two_CHI"},{"mesh":4,"translation":[0.00227581966,0.0,-0.0287397373],"name":"Two_CHI_Net"},{"children":[9,10,11,12,13,14,15,16],"translation":[0.07449875,0.211779654,0.09635895],"name":"Ornament"},{"mesh":5,"translation":[-3.81469718E-08,-0.263550818,-1.90734859E-08],"name":"BG"},{"mesh":6,"translation":[-0.7255132,0.00530258147,0.197125882],"rotation":[-0.7071068,0.0,0.0,0.7071067],"scale":[1.24187493,1.24187493,1.24187493],"name":"Platform"},{"mesh":7,"translation":[-0.7255132,0.00530258147,0.197125882],"rotation":[-0.7071068,0.0,0.0,0.7071067],"scale":[1.24187493,1.24187493,1.24187493],"name":"LightBeam"},{"mesh":8,"translation":[-0.7255132,0.00530258147,-0.0741699338],"rotation":[-0.6408565,0.298836231,-0.298836172,0.6408563],"scale":[1.24187493,1.24187493,1.24187493],"name":"Holographic"},{"mesh":9,"translation":[-0.7255132,0.00530258147,0.009872398],"rotation":[-0.7071068,0.0,0.0,0.7071067],"scale":[1.24187493,1.24187493,1.24187493],"name":"LightBelt"},{"mesh":10,"translation":[-0.727133155,0.2635513,0.123820953],"scale":[1.24187493,1.24187493,1.24187493],"name":"Text"},{"mesh":11,"translation":[-0.7255132,0.00530258147,0.197125882],"rotation":[-0.7071068,0.0,0.0,0.7071067],"scale":[1.27792025,1.27792025,1.27792025],"name":"Platform01"},{"mesh":12,"translation":[-0.0197300334,-0.211779654,-0.5960367],"name":"Title"},{"children":[18,19,20,21],"translation":[0.07484207,0.0,0.45530504],"name":"Button"},{"translation":[-0.7332843,0.0,0.0],"name":"modbusCoolTower-systemStartStopTcp"},{"translation":[0.7332843,0.0,0.0],"name":"modbusCraftInner-faultReset"},{"translation":[0.148739815,0.0,0.0],"name":"modbusCraftOuter-waterplaneFaultReset"},{"translation":[-0.191033974,0.0,0.0],"name":"modbusCraftOuter-systemStartStopTcp"}],"meshes":[{"primitives":[{"attributes":{"POSITION":1,"NORMAL":2,"COLOR_0":3,"TEXCOORD_0":4},"indices":0,"material":0}],"name":"LengQueTa"},{"primitives":[{"attributes":{"POSITION":6,"NORMAL":7,"TEXCOORD_0":8},"indices":5,"material":1}],"name":"LengQueTa_StainlnessSteel"},{"primitives":[{"attributes":{"POSITION":10,"NORMAL":11,"TEXCOORD_0":12},"indices":9,"material":2}],"name":"Pump"},{"primitives":[{"attributes":{"POSITION":14,"NORMAL":15,"TEXCOORD_0":16},"indices":13,"material":3}],"name":"Two_CHI"},{"primitives":[{"attributes":{"POSITION":18,"NORMAL":19,"TEXCOORD_0":20},"indices":17,"material":4}],"name":"Two_CHI_Net"},{"primitives":[{"attributes":{"POSITION":22,"NORMAL":23,"TEXCOORD_0":24},"indices":21,"material":5}],"name":"BG"},{"primitives":[{"attributes":{"POSITION":26,"NORMAL":27,"TEXCOORD_0":28},"indices":25,"material":6}],"name":"Platform"},{"primitives":[{"attributes":{"POSITION":30,"NORMAL":31,"TEXCOORD_0":32},"indices":29,"material":7}],"name":"LightBeam"},{"primitives":[{"attributes":{"POSITION":34,"NORMAL":35,"TEXCOORD_0":36},"indices":33,"material":8}],"name":"Holographic"},{"primitives":[{"attributes":{"POSITION":38,"NORMAL":39,"TEXCOORD_0":40},"indices":37,"material":9}],"name":"LightBelt"},{"primitives":[{"attributes":{"POSITION":42,"NORMAL":43,"TEXCOORD_0":44},"indices":41,"material":9}],"name":"Text"},{"primitives":[{"attributes":{"POSITION":46,"NORMAL":47,"TEXCOORD_0":48},"indices":45,"material":10}],"name":"Platform01"},{"primitives":[{"attributes":{"POSITION":50,"NORMAL":51},"indices":49,"material":11}],"name":"Title"}],"accessors":[{"bufferView":0,"componentType":5123,"count":8370,"type":"SCALAR","name":"accessorIndices"},{"bufferView":1,"componentType":5126,"count":3371,"max":[0.114434794,0.07142269,0.03817193],"min":[-0.114434794,-0.07142268,-0.139918178],"type":"VEC3","name":"accessorPositions"},{"bufferView":1,"byteOffset":40452,"componentType":5126,"count":3371,"type":"VEC3","name":"accessorNormals"},{"bufferView":2,"componentType":5126,"count":3371,"type":"VEC4","name":"accessorColors"},{"bufferView":3,"componentType":5126,"count":3371,"type":"VEC2","name":"accessorUVs"},{"bufferView":0,"byteOffset":16740,"componentType":5123,"count":3096,"type":"SCALAR","name":"accessorIndices"},{"bufferView":1,"byteOffset":80904,"componentType":5126,"count":1712,"max":[0.106694207,0.131169051,0.00732745742],"min":[-0.106694192,-0.00332730636,-0.134935424],"type":"VEC3","name":"accessorPositions"},{"bufferView":1,"byteOffset":101448,"componentType":5126,"count":1712,"type":"VEC3","name":"accessorNormals"},{"bufferView":3,"byteOffset":26968,"componentType":5126,"count":1712,"type":"VEC2","name":"accessorUVs"},{"bufferView":0,"byteOffset":22932,"componentType":5123,"count":6384,"type":"SCALAR","name":"accessorIndices"},{"bufferView":1,"byteOffset":121992,"componentType":5126,"count":2486,"max":[0.109834746,0.050774917,0.0731287152],"min":[-0.109834939,-0.0513021834,-0.06477881],"type":"VEC3","name":"accessorPositions"},{"bufferView":1,"byteOffset":151824,"componentType":5126,"count":2486,"type":"VEC3","name":"accessorNormals"},{"bufferView":3,"byteOffset":40664,"componentType":5126,"count":2486,"type":"VEC2","name":"accessorUVs"},{"bufferView":0,"byteOffset":35700,"componentType":5123,"count":1260,"type":"SCALAR","name":"accessorIndices"},{"bufferView":1,"byteOffset":181656,"componentType":5126,"count":624,"max":[0.081393756,0.0512433574,0.128970757],"min":[-0.0859454,-0.0512433462,-0.07149127],"type":"VEC3","name":"accessorPositions"},{"bufferView":1,"byteOffset":189144,"componentType":5126,"count":624,"type":"VEC3","name":"accessorNormals"},{"bufferView":3,"byteOffset":60552,"componentType":5126,"count":624,"type":"VEC2","name":"accessorUVs"},{"bufferView":0,"byteOffset":38220,"componentType":5123,"count":48,"type":"SCALAR","name":"accessorIndices"},{"bufferView":1,"byteOffset":196632,"componentType":5126,"count":32,"max":[0.0805798247,0.05042345,0.051081486],"min":[-0.0805798247,-0.0504234545,-0.0510814749],"type":"VEC3","name":"accessorPositions"},{"bufferView":1,"byteOffset":197016,"componentType":5126,"count":32,"type":"VEC3","name":"accessorNormals"},{"bufferView":3,"byteOffset":65544,"componentType":5126,"count":32,"type":"VEC2","name":"accessorUVs"},{"bufferView":0,"byteOffset":38316,"componentType":5123,"count":6,"type":"SCALAR","name":"accessorIndices"},{"bufferView":1,"byteOffset":197400,"componentType":5126,"count":4,"max":[1.25,-5.00679E-07,0.75],"min":[-1.25,-5.00679E-07,-0.75],"type":"VEC3","name":"accessorPositions"},{"bufferView":1,"byteOffset":197448,"componentType":5126,"count":4,"type":"VEC3","name":"accessorNormals"},{"bufferView":3,"byteOffset":65800,"componentType":5126,"count":4,"type":"VEC2","name":"accessorUVs"},{"bufferView":0,"byteOffset":38328,"componentType":5123,"count":25956,"type":"SCALAR","name":"accessorIndices"},{"bufferView":1,"byteOffset":197496,"componentType":5126,"count":7356,"max":[1.36568046,0.205940753,0.199999988],"min":[-0.199999988,0.0,-0.199999988],"type":"VEC3","name":"accessorPositions"},{"bufferView":1,"byteOffset":285768,"componentType":5126,"count":7356,"type":"VEC3","name":"accessorNormals"},{"bufferView":3,"byteOffset":65832,"componentType":5126,"count":7356,"type":"VEC2","name":"accessorUVs"},{"bufferView":0,"byteOffset":90240,"componentType":5123,"count":1800,"type":"SCALAR","name":"accessorIndices"},{"bufferView":1,"byteOffset":374040,"componentType":5126,"count":792,"max":[1.34835112,0.436597735,0.170268759],"min":[-0.182670474,0.149999991,-0.170268759],"type":"VEC3","name":"accessorPositions"},{"bufferView":1,"byteOffset":383544,"componentType":5126,"count":792,"type":"VEC3","name":"accessorNormals"},{"bufferView":3,"byteOffset":124680,"componentType":5126,"count":792,"type":"VEC2","name":"accessorUVs"},{"bufferView":0,"byteOffset":93840,"componentType":5123,"count":504,"type":"SCALAR","name":"accessorIndices"},{"bufferView":1,"byteOffset":393048,"componentType":5126,"count":174,"max":[0.928565562,0.136489183,1.07224357],"min":[-0.179280519,-0.0267287064,-0.17928049],"type":"VEC3","name":"accessorPositions"},{"bufferView":1,"byteOffset":395136,"componentType":5126,"count":174,"type":"VEC3","name":"accessorNormals"},{"bufferView":3,"byteOffset":131016,"componentType":5126,"count":174,"type":"VEC2","name":"accessorUVs"},{"bufferView":0,"byteOffset":94848,"componentType":5123,"count":1512,"type":"SCALAR","name":"accessorIndices"},{"bufferView":1,"byteOffset":397224,"componentType":5126,"count":522,"max":[1.30233276,0.049605988,0.1366521],"min":[-0.1366521,0.004451872,-0.1366521],"type":"VEC3","name":"accessorPositions"},{"bufferView":1,"byteOffset":403488,"componentType":5126,"count":522,"type":"VEC3","name":"accessorNormals"},{"bufferView":3,"byteOffset":132408,"componentType":5126,"count":522,"type":"VEC2","name":"accessorUVs"},{"bufferView":0,"byteOffset":97872,"componentType":5123,"count":15381,"type":"SCALAR","name":"accessorIndices"},{"bufferView":1,"byteOffset":409752,"componentType":5126,"count":5965,"max":[1.25944817,0.0,0.00523908064],"min":[-0.07286203,-0.01,-0.04074841],"type":"VEC3","name":"accessorPositions"},{"bufferView":1,"byteOffset":481332,"componentType":5126,"count":5965,"type":"VEC3","name":"accessorNormals"},{"bufferView":3,"byteOffset":136584,"componentType":5126,"count":5965,"type":"VEC2","name":"accessorUVs"},{"bufferView":0,"byteOffset":128636,"componentType":5123,"count":36,"type":"SCALAR","name":"accessorIndices"},{"bufferView":1,"byteOffset":552912,"componentType":5126,"count":24,"max":[1.34215224,0.145769045,0.199999973],"min":[-0.200948447,2.38418547E-08,0.199999869],"type":"VEC3","name":"accessorPositions"},{"bufferView":1,"byteOffset":553200,"componentType":5126,"count":24,"type":"VEC3","name":"accessorNormals"},{"bufferView":3,"byteOffset":184304,"componentType":5126,"count":24,"type":"VEC2","name":"accessorUVs"},{"bufferView":0,"byteOffset":128708,"componentType":5123,"count":6669,"type":"SCALAR","name":"accessorIndices"},{"bufferView":1,"byteOffset":553488,"componentType":5126,"count":2277,"max":[0.2820547,0.0,0.0069125006],"min":[-0.2820547,0.0,-0.0523375],"type":"VEC3","name":"accessorPositions"},{"bufferView":1,"byteOffset":580812,"componentType":5126,"count":2277,"type":"VEC3","name":"accessorNormals"},{"bufferView":4,"componentType":5126,"count":61,"max":[2.0],"min":[0.0],"type":"SCALAR","name":"accessorAnimationInput"},{"bufferView":5,"componentType":5126,"count":61,"type":"VEC4","name":"accessorAnimationRotations"},{"bufferView":4,"byteOffset":244,"componentType":5126,"count":61,"max":[2.0],"min":[0.0],"type":"SCALAR","name":"accessorAnimationInput"},{"bufferView":5,"byteOffset":976,"componentType":5126,"count":61,"type":"VEC4","name":"accessorAnimationRotations"},{"bufferView":4,"byteOffset":488,"componentType":5126,"count":61,"max":[2.0],"min":[0.0],"type":"SCALAR","name":"accessorAnimationInput"},{"bufferView":5,"byteOffset":1952,"componentType":5126,"count":61,"type":"VEC4","name":"accessorAnimationRotations"}],"bufferViews":[{"buffer":0,"byteLength":142048,"name":"bufferViewScalar"},{"buffer":0,"byteOffset":142048,"byteLength":608136,"byteStride":12,"name":"bufferViewFloatVec3"},{"buffer":0,"byteOffset":750184,"byteLength":53936,"byteStride":16,"name":"bufferViewFloatVec4"},{"buffer":0,"byteOffset":804120,"byteLength":184496,"byteStride":8,"name":"bufferViewFloatVec2"},{"buffer":0,"byteOffset":988616,"byteLength":732,"name":"bufferViewAnimationFloatScalar"},{"buffer":0,"byteOffset":989348,"byteLength":2928,"name":"bufferViewAnimationFloatVec4"}],"buffers":[{"uri":"LQLEP.bin","byteLength":992276}],"materials":[{"pbrMetallicRoughness":{"baseColorTexture":{"index":0},"metallicFactor":0.0,"roughnessFactor":0.450053632},"name":"07 - Default"},{"pbrMetallicRoughness":{"baseColorFactor":[0.5882353,0.5882353,0.5882353,1.0],"metallicFactor":0.0,"roughnessFactor":0.7022211},"name":"StainlnessSteel_Metallic"},{"pbrMetallicRoughness":{"baseColorTexture":{"index":1},"metallicFactor":0.0,"roughnessFactor":0.450053632},"name":"Pump"},{"pbrMetallicRoughness":{"baseColorTexture":{"index":2},"metallicFactor":0.0,"roughnessFactor":0.450053632},"name":"Two_CHI"},{"pbrMetallicRoughness":{"baseColorTexture":{"index":3},"metallicFactor":0.0,"roughnessFactor":0.450053632},"alphaMode":"BLEND","name":"Two_CHI_Net"},{"pbrMetallicRoughness":{"baseColorTexture":{"index":4},"metallicFactor":0.0,"roughnessFactor":0.450053632},"name":"BG"},{"pbrMetallicRoughness":{"baseColorTexture":{"index":5},"metallicFactor":0.0,"roughnessFactor":0.450053632},"name":"Platform"},{"pbrMetallicRoughness":{"baseColorFactor":[0.0,0.0980392247,0.6039216,1.0],"baseColorTexture":{"index":6},"metallicFactor":0.0,"roughnessFactor":0.450053632},"emissiveFactor":[0.0287103038,0.0911240056,0.273372024],"alphaMode":"BLEND","doubleSided":true,"name":"LightBeam"},{"pbrMetallicRoughness":{"baseColorTexture":{"index":7},"metallicFactor":0.0,"roughnessFactor":0.450053632},"emissiveFactor":[0.0137310149,0.0561723337,0.1922342],"alphaMode":"BLEND","doubleSided":true,"name":"Holographic"},{"pbrMetallicRoughness":{"baseColorFactor":[0.0980392247,0.376470625,0.937254965,1.0],"metallicFactor":0.0,"roughnessFactor":0.450053632},"emissiveFactor":[0.0312068537,0.119834319,0.298337519],"name":"LightBelt"},{"pbrMetallicRoughness":{"baseColorTexture":{"index":9},"metallicFactor":0.0,"roughnessFactor":0.450053632},"emissiveTexture":{"index":8},"emissiveFactor":[1.0,1.0,1.0],"alphaMode":"BLEND","name":"Platform01"},{"pbrMetallicRoughness":{"baseColorFactor":[0.5882353,0.5882353,0.5882353,1.0],"metallicFactor":0.0,"roughnessFactor":0.450053632},"emissiveFactor":[0.318309873,0.318309873,0.318309873],"name":"Title"}],"textures":[{"sampler":0,"source":0,"name":"LengQueTa_Base_Color.jpg"},{"sampler":0,"source":1,"name":"Pump06_Base_Color.jpg"},{"sampler":0,"source":2,"name":"Two_CHI.jpg"},{"sampler":0,"source":3,"name":"Two_CHI01.png"},{"sampler":0,"source":4,"name":"Air-ConditionSystemBG.jpg"},{"sampler":0,"source":5,"name":"Platform_Base_Color.jpg"},{"sampler":0,"source":6,"name":"000255_alpha_QuanXi.png"},{"sampler":0,"source":7,"name":"QuanXiColor_alpha_QuanXi.png"},{"sampler":0,"source":8,"name":"Platform01.jpg"},{"sampler":0,"source":9,"name":"Platform01_alpha_Platform01_Alpha.png"}],"images":[{"uri":"LengQueTa_Base_Color.jpg"},{"uri":"Pump06_Base_Color.jpg"},{"uri":"Two_CHI.jpg"},{"uri":"Two_CHI01.png"},{"uri":"Air-ConditionSystemBG.jpg"},{"uri":"Platform_Base_Color.jpg"},{"uri":"000255_alpha_QuanXi.png"},{"uri":"QuanXiColor_alpha_QuanXi.png"},{"uri":"Platform01.jpg"},{"uri":"Platform01_alpha_Platform01_Alpha.png"}],"samplers":[{"magFilter":9729,"minFilter":9987}],"animations":[{"channels":[{"sampler":0,"target":{"node":0,"path":"rotation"}},{"sampler":1,"target":{"node":3,"path":"rotation"}},{"sampler":2,"target":{"node":5,"path":"rotation"}}],"samplers":[{"input":52,"output":53},{"input":54,"output":55},{"input":56,"output":57}],"name":"All Animations"}]}